Coordinates
version=1
nRows=13
nColumns=34
inDegrees=yes

Units are S.I. units (second, meters, Newtons, ...)
If the header above contains a line with 'inDegrees', this indicates whether rotational values are in degrees (yes) or radians (no).

endheader
time	pelvis_tilt	pelvis_list	pelvis_rotation	pelvis_tx	pelvis_ty	pelvis_tz	hip_flexion_r	hip_adduction_r	hip_rotation_r	knee_angle_r	ankle_angle_r	subtalar_angle_r	mtp_angle_r	hip_flexion_l	hip_adduction_l	hip_rotation_l	knee_angle_l	ankle_angle_l	subtalar_angle_l	mtp_angle_l	lumbar_extension	lumbar_bending	lumbar_rotation	arm_flex_r	arm_add_r	arm_rot_r	elbow_flex_r	pro_sup_r	arm_flex_l	arm_add_l	arm_rot_l	elbow_flex_l	pro_sup_l
      0.00000000	     -2.37640436	     -0.58527594	     -6.66736910	      1.65713447	      0.97642505	     -0.02289702	      2.43969001	     -5.21990214	     -4.02683839	      6.27564280	      2.66687860	    -12.52665105	      0.00000000	      1.95544740	     -4.44940472	     -0.76940186	      5.03767339	      7.40620439	     -5.56964382	      0.00000000	     -7.19043585	      2.27463865	     -2.60663802	     12.90582389	     -6.83282376	     38.55916664	     74.79456419	     92.84566095	      5.54410678	     -3.72497559	     26.31530855	     66.43450047	     86.76929204
      0.01666670	     -3.56557143	     -0.34355804	     -6.29653215	      1.65871938	      0.97487198	     -0.02281036	      3.58921811	     -5.12835554	     -3.28388175	      6.18774932	      6.29008888	     -9.95389189	      0.00000000	      4.00204687	     -4.06785136	      0.08424455	      5.12070820	      7.82943765	     -4.49175160	      0.00000000	     -4.79860378	      2.50062544	     -2.69223098	     11.83442068	     -6.38040295	     36.19006711	     73.72603513	     92.26223114	      4.98932526	     -3.72242728	     25.29963802	     65.78489189	     86.11620495
      0.03333330	     -3.45897665	      0.34004393	     -6.30258637	      1.65847426	      0.97484404	     -0.02191806	      3.16087176	     -5.86966521	     -3.45841632	      5.32825999	      6.61172405	     -9.68768224	      0.00000000	      3.74827684	     -3.48509449	      0.30195390	      4.50927328	      7.22722753	     -4.45806491	      0.00000000	     -4.77275958	      1.59204330	     -2.19034508	     11.74808447	     -6.11405732	     35.57416181	     73.10332006	     92.16423843	      5.56257410	     -4.21184099	     24.96344842	     65.26416403	     85.76080959
      0.05000000	     -2.78601805	      0.75751081	     -6.17173588	      1.65792089	      0.97593971	     -0.02173095	      2.15277777	     -6.42603344	     -3.32706681	      4.76824301	      6.92155078	     -9.55709092	      0.00000000	      2.64561501	     -2.97231768	      1.15795332	      3.79906172	      6.63703000	     -5.23341015	      0.00000000	     -5.52154146	      0.92709655	     -1.62758054	     11.59408821	     -6.11829361	     35.52489348	     72.83163749	     92.18070242	      6.27647913	     -4.51111496	     25.22069992	     64.84461729	     85.57800178
      0.06666670	     -2.69283301	      0.96025811	     -6.04868086	      1.65776030	      0.97629822	     -0.02165808	      1.81205557	     -6.59037052	     -3.06510804	      4.33671890	      7.17445460	     -9.63012022	      0.00000000	      2.36773464	     -2.76987461	      1.69907833	      3.44151179	      6.68701228	     -5.37110896	      0.00000000	     -5.53569984	      0.61234612	     -1.42341554	     11.38485463	     -5.99836714	     35.90491997	     73.04941719	     92.21381316	      6.46659106	     -4.54596307	     25.43432825	     64.86363327	     85.59160987
      0.08333330	     -1.79875121	      1.02580944	     -5.99182672	      1.65716884	      0.97781064	     -0.02175543	      0.61923544	     -6.69200735	     -2.77337986	      3.88562011	      7.02673088	    -10.17393657	      0.00000000	      1.13447631	     -2.58151039	      2.67717541	      2.90165628	      5.94137772	     -6.88830217	      0.00000000	     -6.79141679	      0.49640991	     -0.98390120	     11.80703677	     -6.62921587	     37.40449599	     74.31840213	     92.32257783	      7.36706475	     -4.85141479	     27.13452322	     64.86476251	     85.84433011
      0.10000000	     -1.56629741	      1.07129906	     -5.86306479	      1.65709991	      0.97818994	     -0.02183000	      0.17638745	     -6.72373991	     -2.53283082	      3.54317453	      6.92727281	    -10.54753967	      0.00000000	      0.79881610	     -2.50893515	      3.32017394	      2.71857180	      5.67296957	     -7.63638389	      0.00000000	     -7.11380278	      0.42420662	     -0.79355641	     11.82858385	     -6.86964697	     38.25472716	     75.15282650	     92.32324216	      7.87309752	     -5.04634862	     28.31516293	     64.93701159	     86.09842256
      0.11666670	     -1.28368666	      1.09654620	     -5.80617160	      1.65707331	      0.97827435	     -0.02170932	     -0.28156825	     -6.73646560	     -2.26872311	      3.27052107	      6.82821386	    -10.85948998	      0.00000000	      0.41984372	     -2.45959759	      3.80254289	      2.58558521	      5.37354521	     -8.21308892	      0.00000000	     -7.44163256	      0.37795184	     -0.61687203	     11.87464183	     -7.06288508	     38.91970916	     75.76045651	     92.27915249	      8.29151639	     -5.17459429	     29.06704743	     64.85539459	     86.30368526
      0.13333330	     -1.27451443	      1.10605591	     -5.79939046	      1.65690390	      0.97802288	     -0.02150279	     -0.27538724	     -6.73314692	     -2.26383948	      3.26179410	      6.82964369	    -10.85942679	      0.00000000	      0.41418468	     -2.46605508	      3.80755346	      2.59029847	      5.37039629	     -8.21261557	      0.00000000	     -7.44068493	      0.37837496	     -0.61535944	     11.86773757	     -7.05796899	     38.92719971	     75.76338340	     92.27922625	      8.29678095	     -5.17510620	     29.06798914	     64.85627372	     86.30420617
      0.15000000	     -1.23398653	      1.09347062	     -5.75026207	      1.65688015	      0.97832357	     -0.02105597	     -0.41402409	     -6.68535323	     -2.13712710	      3.10049257	      6.87767720	    -10.89262969	      0.00000000	      0.40513653	     -2.51242411	      4.04419413	      2.67711091	      5.23693222	     -8.16443096	      0.00000000	     -7.51285313	      0.38458647	     -0.47416322	     11.49953531	     -6.82065358	     39.31330486	     75.85463607	     92.29252628	      8.45121044	     -5.27933056	     29.07836193	     64.85448496	     86.31470716
      0.16666670	     -0.75069606	      1.01251205	     -5.62992701	      1.65699320	      0.97951459	     -0.02102059	     -1.24518446	     -6.60769900	     -1.85639729	      2.57603377	      6.30790752	    -11.61907699	      0.00000000	     -0.27551223	     -2.55936352	      4.77898179	      2.37276174	      4.62111366	     -9.11726852	      0.00000000	     -8.16224135	      0.41592455	     -0.28238293	     11.84030306	     -7.68505161	     41.51299303	     76.90652226	     92.28999647	      9.06878091	     -5.47226725	     30.27888422	     64.54210079	     86.49673943
      0.18333330	     -0.74850484	      1.02420262	     -5.53291099	      1.65721863	      0.97987745	     -0.02083427	     -1.28947203	     -6.59157442	     -1.80039058	      2.51854299	      6.35462026	    -11.64633744	      0.00000000	     -0.24493136	     -2.58118174	      4.86559316	      2.41435872	      4.53145270	     -9.08177325	      0.00000000	     -8.25351915	      0.45307793	     -0.15501697	     11.63645448	     -7.58763629	     41.69790587	     76.87791311	     92.28870803	      9.08501375	     -5.57467754	     30.27030177	     64.52277865	     86.49894743
      0.20000000	     -0.72429927	      1.01641521	     -5.52089190	      1.65750358	      0.97976928	     -0.02029421	     -1.39308680	     -6.54207268	     -1.75319040	      2.38088839	      6.41713812	    -11.71294654	      0.00000000	     -0.26823033	     -2.63561510	      5.04961397	      2.47260758	      4.37046313	     -9.00215231	      0.00000000	     -8.28631220	      0.44977665	     -0.05918610	     11.37723077	     -7.55513979	     41.97843422	     76.85254944	     92.28893879	      9.17640422	     -5.65851736	     30.27436360	     64.51685186	     86.50212058
